<svg xmlns="http://www.w3.org/2000/svg" width="1280" height="820" viewBox="0 0 1280 820">
  <rect width="1280" height="820" fill="#eef2f1"/>
  <rect width="280" height="820" fill="#0d1f22"/>
  <text x="36" y="70" fill="#f8fafc" font-family="Arial" font-size="30" font-weight="700">Mythos Discover</text>
  <text x="320" y="54" fill="#64748b" font-family="Arial" font-size="13" font-weight="700">EXPOSURE TRUTH LAYER</text>
  <text x="320" y="92" fill="#111827" font-family="Arial" font-size="42" font-weight="700">Are we impacted?</text>
  <rect x="1050" y="50" width="170" height="44" rx="8" fill="#0f766e"/>
  <text x="1080" y="78" fill="#ffffff" font-family="Arial" font-size="15" font-weight="700">Open workflow</text>
  <g font-family="Arial">
    <rect x="320" y="130" width="205" height="120" rx="8" fill="#ffffff" stroke="#d7dddf"/>
    <text x="342" y="168" fill="#64748b" font-size="14">Confirmed impact</text>
    <text x="342" y="218" fill="#111827" font-size="40" font-weight="700">4</text>
    <rect x="545" y="130" width="205" height="120" rx="8" fill="#ffffff" stroke="#d7dddf"/>
    <text x="567" y="168" fill="#64748b" font-size="14">Mean decision</text>
    <text x="567" y="218" fill="#111827" font-size="40" font-weight="700">3m 42s</text>
    <rect x="770" y="130" width="205" height="120" rx="8" fill="#ffffff" stroke="#d7dddf"/>
    <text x="792" y="168" fill="#64748b" font-size="14">Sources</text>
    <text x="792" y="218" fill="#111827" font-size="40" font-weight="700">7</text>
    <rect x="995" y="130" width="205" height="120" rx="8" fill="#ffffff" stroke="#d7dddf"/>
    <text x="1017" y="168" fill="#64748b" font-size="14">Portfolio risk</text>
    <text x="1017" y="218" fill="#111827" font-size="40" font-weight="700">84/100</text>
  </g>
  <rect x="320" y="280" width="420" height="470" rx="8" fill="#ffffff" stroke="#d7dddf"/>
  <text x="344" y="318" fill="#111827" font-family="Arial" font-size="24" font-weight="700">Live Impact Queue</text>
  <rect x="344" y="344" width="372" height="78" rx="8" fill="#f0fdfa" stroke="#0f766e"/>
  <text x="364" y="374" fill="#111827" font-family="Arial" font-size="15" font-weight="700">CVE-2026-18442 ExampleVPN RCE</text>
  <text x="364" y="400" fill="#b91c1c" font-family="Arial" font-size="14" font-weight="700">Impacted · 100/100 · 96%</text>
  <rect x="344" y="434" width="372" height="78" rx="8" fill="#ffffff" stroke="#dbe3e4"/>
  <text x="364" y="464" fill="#111827" font-family="Arial" font-size="15" font-weight="700">Northstar CRM token exposure</text>
  <text x="364" y="490" fill="#b91c1c" font-family="Arial" font-size="14" font-weight="700">Impacted · 87/100 · 92%</text>
  <rect x="770" y="280" width="430" height="470" rx="8" fill="#ffffff" stroke="#d7dddf"/>
  <text x="794" y="316" fill="#64748b" font-family="Arial" font-size="13" font-weight="700">IMPACT DECISION</text>
  <text x="794" y="360" fill="#111827" font-family="Arial" font-size="34" font-weight="700">Impacted</text>
  <text x="794" y="410" fill="#334155" font-family="Arial" font-size="17">ExampleVPN RCE impacts a critical internet-facing gateway.</text>
  <text x="794" y="436" fill="#334155" font-family="Arial" font-size="17">Patch or isolate first.</text>
  <rect x="794" y="470" width="110" height="72" rx="8" fill="#f8fafc"/>
  <text x="816" y="515" fill="#111827" font-family="Arial" font-size="24" font-weight="700">100</text>
  <rect x="920" y="470" width="110" height="72" rx="8" fill="#f8fafc"/>
  <text x="942" y="515" fill="#111827" font-family="Arial" font-size="24" font-weight="700">96%</text>
  <rect x="1046" y="470" width="110" height="72" rx="8" fill="#f8fafc"/>
  <text x="1068" y="515" fill="#111827" font-family="Arial" font-size="24" font-weight="700">1</text>
  <text x="794" y="590" fill="#111827" font-family="Arial" font-size="18" font-weight="700">Evidence</text>
  <text x="794" y="624" fill="#15803d" font-family="Arial" font-size="16">Affected assets · External exposure · CISA KEV</text>
</svg>
